<svg id="Layer_1" data-name="Layer 1" xmlns="http://www.w3.org/2000/svg" xmlns:xlink="http://www.w3.org/1999/xlink" viewBox="0 0 1404 257"><defs><style>.cls-1{fill:url(#linear-gradient);}.cls-2{fill:url(#linear-gradient-2);}.cls-3{fill:url(#linear-gradient-3);}.cls-4{fill:url(#linear-gradient-4);}</style><linearGradient id="linear-gradient" x1="38.51" y1="84.15" x2="1365.5" y2="84.15" gradientUnits="userSpaceOnUse"><stop offset="0" stop-color="#0cb6fd"/><stop offset="1" stop-color="#3f67f2" stop-opacity="0.97"/></linearGradient><linearGradient id="linear-gradient-2" x1="38.51" y1="153.65" x2="1365.5" y2="153.65" gradientUnits="userSpaceOnUse"><stop offset="0" stop-color="#be2f95"/><stop offset="0.66" stop-color="#e01577"/><stop offset="1" stop-color="#ec0c6d"/></linearGradient><linearGradient id="linear-gradient-3" x1="38.51" y1="126.98" x2="1365.5" y2="126.98" gradientUnits="userSpaceOnUse"><stop offset="0" stop-color="#641180"/><stop offset="1" stop-color="#ca0b84"/></linearGradient><linearGradient id="linear-gradient-4" x1="568.66" y1="42.32" x2="620.15" y2="42.32" xlink:href="#linear-gradient-2"/></defs><path class="cls-1" d="M273.51,74.69v35.15q-14.7-1.29-29.25-2.66v-31a10.19,10.19,0,0,0-3.13-7.88c-2.09-1.91-5-2.87-8.87-2.87q-5.25,0-8,2.37a12.05,12.05,0,0,0-3.75,6.63l-7,29.76q-14.65-1.44-29.15-3l7.14-31q3.5-16,13.37-24.63T233,36.94q20.49,0,30.5,10.37T273.51,74.69Zm-152-4.5q-3.51-16-14-24.63T79,36.94q-20.51,0-30.5,10.37t-10,27.38V84Q53,85.92,67.76,87.77V76.19a10.15,10.15,0,0,1,3.12-7.88q3.12-2.86,8.88-2.87,5,0,7.87,2.37a11.86,11.86,0,0,1,3.88,6.63L95.4,91.18q15.8,1.92,31.8,3.76ZM432.75,87.31q-10.5-10.62-34-10.62H356q-12.5,0-21.12,3.25a37.83,37.83,0,0,0-14.25,9.12,34.8,34.8,0,0,0-8.13,13.88,53.37,53.37,0,0,0-2.09,10q12.93,1.06,26,2.06a17.8,17.8,0,0,1,4-7.6q4.62-5.25,15.62-5.25h42.5q9.75,0,14.25,4.5t4.5,12c0,.68,0,1.33-.09,2q12.88.81,25.88,1.55c.14-1.62.21-3.29.21-5Q443.25,97.93,432.75,87.31ZM560.39,76.69H511.25q-19.5,0-27.62,9.25t-8.13,29.25V124q13.2.67,26.5,1.3v-7.07a16,16,0,0,1,16-16h42.35a5.11,5.11,0,0,0,5.11-5.11V81.8A5.11,5.11,0,0,0,560.39,76.69Zm52.5,0H596.61a5.11,5.11,0,0,0-5.11,5.11v47q13.2.41,26.5.75V81.8A5.11,5.11,0,0,0,612.89,76.69Zm106,0H692.61a5.11,5.11,0,0,1-5.11-5.11v-21a5.11,5.11,0,0,0-5.11-5.11H665.86a5.11,5.11,0,0,0-5.11,5.11v21a5.11,5.11,0,0,1-5.11,5.11h-7.78a5.11,5.11,0,0,0-5.11,5.11V97.08a5.11,5.11,0,0,0,5.11,5.11h7.78a5.11,5.11,0,0,1,5.11,5.11v23.15q13.34.24,26.75.42V107.3a5.11,5.11,0,0,1,5.11-5.11h26.28A5.11,5.11,0,0,0,724,97.08V81.8A5.11,5.11,0,0,0,718.89,76.69Zm164,0H867.11A5.11,5.11,0,0,0,862,81.8v48.63q13.05-.23,26-.53V81.8A5.11,5.11,0,0,0,882.89,76.69Zm-112.25,0H754.11A5.11,5.11,0,0,0,749,81.8v49.54q13.41,0,26.75,0V81.8A5.11,5.11,0,0,0,770.64,76.69Zm259.5,0H962q-23,0-33,10.37t-10,28.13a52,52,0,0,0,1.83,13.86q14.28-.41,28.43-.9a4.32,4.32,0,0,1-.39-.34c-2.58-2.41-3.87-6-3.87-10.62q0-7.5,4-11.25t13.25-3.75h67.89a5.11,5.11,0,0,0,5.11-5.11V81.8A5.11,5.11,0,0,0,1030.14,76.69Zm223.86-18q-4.5-12-13.13-16.88T1219,36.94q-13.5,0-22.13,4.87T1183.5,58.69l-23,58.23q16.8-1.22,33.41-2.52l16.34-41.46q2.49-5.76,8.5-5.75t8.25,5.75l14.18,37.55q15.81-1.38,31.43-2.83Zm106.39-18.75h-19.28a5.1,5.1,0,0,0-5.11,5.11V101.4q14.84-1.55,29.5-3.15V45.05A5.11,5.11,0,0,0,1360.39,39.94Z"/><path class="cls-2" d="M273.51,137.45v66.13a5.11,5.11,0,0,1-5.11,5.11h-19a5.11,5.11,0,0,1-5.11-5.11V133.19Q258.77,135.38,273.51,137.45Zm-94.1-14.66-11.65,50.65q-2.5,9.5-11.25,9.5-9,0-11.25-9.5l-13.61-59.16q-16.35-3-32.31-6.17l16.17,69.58q3.75,16.5,13.37,25.25t27.38,8.75q17.49,0,26.75-8.63t13.25-25.37L208,127.54Q193.6,125.21,179.41,122.79ZM38.51,95.61v108a5.11,5.11,0,0,0,5.11,5.11h19a5.11,5.11,0,0,0,5.11-5.11V101.77Q53,98.73,38.51,95.61Zm393.13,87.33H356q-11,0-15.62-5.13t-4.63-13.12v-4.4a5.1,5.1,0,0,1,5.11-5.1H398.5a88.47,88.47,0,0,0,14.37-1.06Q360.16,149,310,142.4v22.79a57.08,57.08,0,0,0,2.5,17.37,34.86,34.86,0,0,0,8.13,13.75,37.84,37.84,0,0,0,14.25,9.13q8.63,3.24,21.12,3.25h75.64a5.11,5.11,0,0,0,5.11-5.11V188A5.1,5.1,0,0,0,431.64,182.94Zm43.86-23.25v43.89a5.11,5.11,0,0,0,5.11,5.11h16.28a5.11,5.11,0,0,0,5.11-5.11v-41.9Q488.68,160.72,475.5,159.69Zm116,7.13v36.76a5.11,5.11,0,0,0,5.11,5.11h16.28a5.11,5.11,0,0,0,5.11-5.11V167.87Q604.68,167.41,591.5,166.82Zm126.89,17.62H705.25q-9.51,0-13.63-4.25-3.15-3.24-3.88-10.55-13.5-.19-26.86-.51A78.33,78.33,0,0,0,663,184.94q2.25,8.75,7,14a26.31,26.31,0,0,0,12.12,7.5,60.84,60.84,0,0,0,17.63,2.25h18.64a5.11,5.11,0,0,0,5.11-5.11v-14A5.1,5.1,0,0,0,718.39,184.44Zm141-16.7a26.07,26.07,0,0,1-5.59,7.45q-8.25,7.74-24,7.75h-21.5q-15.75,0-24.13-7.75a26.36,26.36,0,0,1-4.54-5.46h0q-14.54.2-29.21.25a53.63,53.63,0,0,0,2.26,7.71,43.71,43.71,0,0,0,10.88,16.37,50.79,50.79,0,0,0,17.87,10.75q10.64,3.88,24.88,3.88h24.5q14.25,0,24.87-3.88a50.83,50.83,0,0,0,17.88-10.75,43.69,43.69,0,0,0,10.87-16.37,53.13,53.13,0,0,0,2.89-11.11Q873.37,167.21,859.34,167.74ZM1039,156.17h0q-13.6,1.26-27.36,2.4c1.89,2.3,2.83,5.58,2.83,9.87q0,7.74-4,11.12t-13.25,3.38H925.61a5.1,5.1,0,0,0-5.11,5.1v15.54a5.11,5.11,0,0,0,5.11,5.11h71.64a58,58,0,0,0,19.75-3,36.29,36.29,0,0,0,13.5-8.25,31,31,0,0,0,7.62-12.63,55.18,55.18,0,0,0,.92-28.64Zm269.33,45.59-29.07-76.5q-15.19,2.52-30.68,5L1277,205.38a5.11,5.11,0,0,0,4.78,3.31h21.81A5.12,5.12,0,0,0,1308.37,201.76Zm-158.62-57.62L1127,201.7a5.11,5.11,0,0,0,4.75,7h21.51a5.11,5.11,0,0,0,4.75-3.24L1184,139.67Q1167,142,1149.75,144.14ZM1336,115.34v88.24a5.11,5.11,0,0,0,5.11,5.11h19.28a5.11,5.11,0,0,0,5.11-5.11v-93.8Q1350.92,112.6,1336,115.34Z"/><path class="cls-3" d="M1365.5,98.25v11.53q-14.58,2.82-29.5,5.56V101.4Q1350.84,99.86,1365.5,98.25Zm-92.89,9.41q-15.63,1.45-31.43,2.83l7.44,19.72q15.5-2.43,30.68-5Zm-112.11,9.26-10.75,27.22Q1167,142,1184,139.67l10-25.27Q1177.3,115.7,1160.5,116.92Zm-122,37.27a26.85,26.85,0,0,0-7.13-11.75q-5.11-5-14-8t-22.62-3h-31q-10.47,0-14.48-3.29h0q-14.16.49-28.43.9c0,.22.11.43.17.64a29.44,29.44,0,0,0,7.12,12.37,35,35,0,0,0,13.88,8.5q8.75,3.13,22.5,3.13h31.25c6.66,0,11.46,1.12,14.37,3.37a8.87,8.87,0,0,1,1.55,1.51q13.77-1.15,27.36-2.4C1038.87,155.5,1038.69,154.84,1038.5,154.19ZM862,130.43v25.26a26.86,26.86,0,0,1-2.66,12.05q14-.53,27.92-1.16h0a64.54,64.54,0,0,0,.73-9.89V129.9Q875,130.2,862,130.43Zm-86.25,25.26V131.34q-13.34,0-26.75,0v25.35A62.37,62.37,0,0,0,750.36,170q14.68-.06,29.21-.25A25.88,25.88,0,0,1,775.75,155.69Zm-88.25,9V130.87q-13.43-.18-26.75-.42v32.74q0,3.09.13,5.94,13.36.31,26.86.51A47.45,47.45,0,0,1,687.5,164.69Zm-96-35.93v38.06q13.18.57,26.5,1.05V129.51Q604.69,129.17,591.5,128.76ZM475.5,124v35.7q13.17,1,26.5,2V125.29Q488.7,124.67,475.5,124Zm-58.34-3.33a14.64,14.64,0,0,1-4.28,9.53q-4.38,4.25-15.13,4.25H340.86a5.11,5.11,0,0,1-5.11-5.11v-8.89a21.78,21.78,0,0,1,.64-5.4q-13-1-26-2.06a60.63,60.63,0,0,0-.41,7.21V142.4q50.14,6.51,102.87,11.73Q426.12,152,433,145.31q8.79-8.46,10-23.1Q430.05,121.48,417.16,120.66Zm-172.9-13.48v26q14.5,2.19,29.25,4.26V109.84Q258.81,108.55,244.26,107.18Zm-59.89-6-5,21.56q14.19,2.42,28.63,4.75l5.48-23.34Q198.87,102.76,184.37,101.23ZM127.2,94.94q-16-1.84-31.8-3.76l3.94,16.93q16,3.14,32.31,6.17ZM38.51,84V95.61Q53,98.72,67.76,101.77v-14Q53,85.9,38.51,84Z"/><path class="cls-4" d="M621.26,40.19v4.24c0,7.84-7.34,14.2-16.38,14.2h0c-9,0-16.38-6.36-16.38-14.2V40.19c0-7.84,7.34-14.19,16.38-14.19h0C613.92,26,621.26,32.35,621.26,40.19Z"/></svg>