<svg id="Layer_1" data-name="Layer 1" xmlns="http://www.w3.org/2000/svg" viewBox="0 0 2000 2000"><defs><style>.cls-1{fill:#464646;}.cls-2{fill:#26abe0;}</style></defs><path class="cls-1" d="M550.68,1132.24q43,0,57.74,14.25t14.73,57v18.3q0,11.17-.36,15.68t-2.73,18.42q-2.37,13.89-16.39,24.35t-35.17,10.46H411V1132.24ZM574.44,1212v-1.43q0-23.21-5.23-31.27t-28-8h-82v80.55h81.26q22.34,0,28.16-8.29T574.44,1212Z"/><path class="cls-1" d="M808.73,1132.24q28.5,0,40.75,11t12.23,39.08a121.08,121.08,0,0,1-1.18,18.3,34,34,0,0,1-4.76,13.19,24.5,24.5,0,0,1-8.31,8.31q-4.76,2.74-20,7.73,16.62,2.13,24.47,8.43t7.84,22v30.42H810.86v-15.21q0-11.64-2-18.54T790,1250.09H709.4v40.64H661.17V1132.24Zm-20.2,79.36q16.4,0,20.43-4t4-18.06q0-7.85-1.54-11.64c-1-2.53-3.17-4.28-6.42-5.23a41,41,0,0,0-8-1.66q-3.09-.24-7.36-.24H709.4v40.87h79.13Z"/><path class="cls-1" d="M1003.57,1130.57l38.49.24q42.29,0,57.86,14t15.56,56.08v7.6q0,49.42-12.35,66.18t-62.5,16.75l-36.35.71-15.21.24-32.79-1.19q-27.57,0-42.53-12.47t-15-40.28l-.48-29.22q0-48.24,12.36-63.09t58.69-14.85ZM977.43,1253l25.9.47,24.71-.24q20.43,0,29.34-4.4t8.92-21.81l.47-21.45a114.53,114.53,0,0,0-1.31-18.7q-1.31-7.74-5.34-11.44t-12-4.88a114.14,114.14,0,0,0-17-1.19l-48,.23q-16.39,0-25,3.34t-9.86,14.18a155.8,155.8,0,0,0-1.31,18v10.72q0,21.93,5.11,29.55T977.43,1253Z"/><path class="cls-1" d="M1294,1290.73l-95.37-119v119h-45.38V1132.24h76.8l95.47,118.8v-118.8h45.38v158.49Z"/><path class="cls-1" d="M1589,1132.24v36.11H1460.49v27.09h120v31.37h-120v28H1589v35.88H1412.25V1132.24Z"/><rect class="cls-2" x="273.67" y="880.59" width="115.14" height="202.18"/><polygon class="cls-2" points="439.49 707.61 273.67 707.61 273.67 823.85 509.45 823.85 439.49 707.61"/><polygon class="cls-2" points="593.18 707.61 593.18 880.59 593.18 951.66 543.05 880.59 408.08 880.59 522.67 1082.77 708.87 1082.77 708.87 880.59 708.87 707.61 593.18 707.61"/><path class="cls-2" d="M1726.33,823.85v-59.5a43.39,43.39,0,0,0-6.61-23.68,59.45,59.45,0,0,0-17.9-17.91,86.7,86.7,0,0,0-26.17-11.29,127,127,0,0,0-32-3.86H1282.31a122.5,122.5,0,0,0-30.85,3.86,86.81,86.81,0,0,0-26.17,11.29,62.62,62.62,0,0,0-18.18,17.91,42.13,42.13,0,0,0-6.88,23.68v260.58q0,38,60.6,54,14.87,3.87,21.48,3.86H1643.7a34.39,34.39,0,0,0,3.58-.27q2.48-.27,6.34-.83,72.7-14.88,72.71-56.74V880.59H1389.19v85.94h209.89q0,18.18-5,24t-17.63,5.78H1344l-7.71-2.75q-10.47-3.85-15.7-9.92c-3.5-4-5.23-9.73-5.23-17.08V823.85Z"/><path class="cls-1" d="M832.6,867.44,751,812.68V707.61L910.7,816.5Zm243.9,0,81.6-54.76V707.61L998.4,816.5Zm-122-25.52L752.45,979.34v103.43L954.55,946.5l202.1,136.27V979.34Z"/><path class="cls-2" d="M1726.33,1165.76h-46.91v-35.19h46.91Zm0,28.13h-46.91v35.18h46.91Zm0,63.31h-46.91v35.19h46.91Zm-62.72-91.44H1616.7v-35.19h46.91Zm0,28.13H1616.7v35.18h46.91Zm0,63.31H1616.7v35.19h46.91Z"/><path class="cls-2" d="M383.3,1165.76H336.39v-35.19H383.3Zm0,28.13H336.39v35.18H383.3Zm0,63.31H336.39v35.19H383.3Zm-62.72-91.44H273.67v-35.19h46.91Zm0,28.13H273.67v35.18h46.91Zm0,63.31H273.67v35.19h46.91Z"/></svg>